HIERARCHY
ROOT hip
{
  OFFSET 0 0 0
  CHANNELS 6 Xposition Yposition Zposition Zrotation Yrotation Xrotation
  JOINT abdomen
  {
    OFFSET 0 20.6881 -0.73152
    CHANNELS 3 Zrotation Xrotation Yrotation
    JOINT chest
    {
      OFFSET 0 11.7043 -0.48768
      CHANNELS 3 Zrotation Xrotation Yrotation
      JOINT neck
      {
        OFFSET 0 22.1894 -2.19456
        CHANNELS 3 Zrotation Xrotation Yrotation
        JOINT head
        {
          OFFSET -0.24384 7.07133 1.2192
          CHANNELS 3 Zrotation Xrotation Yrotation
          JOINT leftEye
          {
            OFFSET 4.14528 8.04674 8.04672
            CHANNELS 3 Zrotation Xrotation Yrotation
            End Site
            {
              OFFSET 1 0 0
            }
          }
          JOINT rightEye
          {
            OFFSET -3.6576 8.04674 8.04672
            CHANNELS 3 Zrotation Xrotation Yrotation
            End Site
            {
              OFFSET 1 0 0
            }
          }
        }
      }
      JOINT rCollar
      {
        OFFSET -2.68224 19.2634 -4.8768
        CHANNELS 3 Zrotation Xrotation Yrotation
        JOINT rShldr
        {
          OFFSET -8.77824 -1.95073 1.46304
          CHANNELS 3 Zrotation Xrotation Yrotation
          JOINT rForeArm
          {
            OFFSET -28.1742 -1.7115 0.48768
            CHANNELS 3 Zrotation Xrotation Yrotation
            JOINT rHand
            {
              OFFSET -22.5879 0.773209 7.07136
              CHANNELS 3 Zrotation Xrotation Yrotation
              JOINT rThumb1
              {
                OFFSET -1.2192 -0.487915 3.41376
                CHANNELS 3 Zrotation Xrotation Yrotation
                JOINT rThumb2
                {
                  OFFSET -3.37035 -0.52449 3.41376
                  CHANNELS 3 Zrotation Xrotation Yrotation
                  End Site
                  {
                    OFFSET -1.78271 -1.18214 1.43049
                  }
                }
              }
              JOINT rIndex1
              {
                OFFSET -7.75947 0.938293 5.60832
                CHANNELS 3 Zrotation Xrotation Yrotation
                JOINT rIndex2
                {
                  OFFSET -2.54057 -0.884171 1.56538
                  CHANNELS 3 Zrotation Xrotation Yrotation
                  End Site
                  {
                    OFFSET -1.62519 -0.234802 1.16502
                  }
                }
              }
              JOINT rMid1
              {
                OFFSET -8.24714 1.18213 3.41376
                CHANNELS 3 Zrotation Xrotation Yrotation
                JOINT rMid2
                {
                  OFFSET -3.10165 -0.590103 1.0647
                  CHANNELS 3 Zrotation Xrotation Yrotation
                  End Site
                  {
                    OFFSET -2.48547 -0.328903 0.83742
                  }
                }
              }
              JOINT rRing1
              {
                OFFSET -8.82822 0.546677 1.51678
                CHANNELS 3 Zrotation Xrotation Yrotation
                JOINT rRing2
                {
                  OFFSET -2.60934 -0.819778 -0.0198488
                  CHANNELS 3 Zrotation Xrotation Yrotation
                  End Site
                  {
                    OFFSET -2.33842 -0.294052 0.168128
                  }
                }
              }
              JOINT rPinky1
              {
                OFFSET -8.27202 -0.0477905 -0.4584
                CHANNELS 3 Zrotation Xrotation Yrotation
                JOINT rPinky2
                {
                  OFFSET -1.82734 -0.647385 -0.700984
                  CHANNELS 3 Zrotation Xrotation Yrotation
                  End Site
                  {
                    OFFSET -1.69225 -0.51767 -0.607171
                  }
                }
              }
            }
          }
        }
      }
      JOINT lCollar
      {
        OFFSET 2.68224 19.2634 -4.8768
        CHANNELS 3 Zrotation Xrotation Yrotation
        JOINT lShldr
        {
          OFFSET 8.77824 -1.95073 1.46304
          CHANNELS 3 Zrotation Xrotation Yrotation
          JOINT lForeArm
          {
            OFFSET 28.1742 -1.7115 0.48768
            CHANNELS 3 Zrotation Xrotation Yrotation
            JOINT lHand
            {
              OFFSET 22.5879 0.773209 7.07136
              CHANNELS 3 Zrotation Xrotation Yrotation
              JOINT lThumb1
              {
                OFFSET 1.2192 -0.487915 3.41376
                CHANNELS 3 Zrotation Xrotation Yrotation
                JOINT lThumb2
                {
                  OFFSET 3.37035 -0.52449 3.41376
                  CHANNELS 3 Zrotation Xrotation Yrotation
                  End Site
                  {
                    OFFSET 1.78271 -1.18214 1.43049
                  }
                }
              }
              JOINT lIndex1
              {
                OFFSET 7.75947 0.938293 5.60832
                CHANNELS 3 Zrotation Xrotation Yrotation
                JOINT lIndex2
                {
                  OFFSET 2.54057 -0.884171 1.56538
                  CHANNELS 3 Zrotation Xrotation Yrotation
                  End Site
                  {
                    OFFSET 1.62519 -0.234802 1.16502
                  }
                }
              }
              JOINT lMid1
              {
                OFFSET 8.24714 1.18213 3.41376
                CHANNELS 3 Zrotation Xrotation Yrotation
                JOINT lMid2
                {
                  OFFSET 3.10165 -0.590103 1.0647
                  CHANNELS 3 Zrotation Xrotation Yrotation
                  End Site
                  {
                    OFFSET 2.48547 -0.328903 0.83742
                  }
                }
              }
              JOINT lRing1
              {
                OFFSET 8.82822 0.546677 1.51678
                CHANNELS 3 Zrotation Xrotation Yrotation
                JOINT lRing2
                {
                  OFFSET 2.60934 -0.819778 -0.0198488
                  CHANNELS 3 Zrotation Xrotation Yrotation
                  End Site
                  {
                    OFFSET 2.33842 -0.294052 0.168128
                  }
                }
              }
              JOINT lPinky1
              {
                OFFSET 8.27202 -0.0477905 -0.4584
                CHANNELS 3 Zrotation Xrotation Yrotation
                JOINT lPinky2
                {
                  OFFSET 1.82734 -0.647385 -0.700984
                  CHANNELS 3 Zrotation Xrotation Yrotation
                  End Site
                  {
                    OFFSET 1.69225 -0.51767 -0.607171
                  }
                }
              }
            }
          }
        }
      }
    }
  }
  JOINT rButtock
  {
    OFFSET -8.77824 4.35084 1.2192
    CHANNELS 3 Zrotation Xrotation Yrotation
    JOINT rThigh
    {
      OFFSET 0 -1.70687 -2.19456
      CHANNELS 3 Zrotation Xrotation Yrotation
      JOINT rShin
      {
        OFFSET 0 -36.8199 0.73152
        CHANNELS 3 Zrotation Xrotation Yrotation
        JOINT rFoot
        {
          OFFSET 0.73152 -45.1104 -5.12064
          CHANNELS 3 Zrotation Xrotation Yrotation
          End Site
          {
            OFFSET -1.1221 -3.69964 12.103
          }
        }
      }
    }
  }
  JOINT lButtock
  {
    OFFSET 8.77824 4.35084 1.2192
    CHANNELS 3 Zrotation Xrotation Yrotation
    JOINT lThigh
    {
      OFFSET 0 -1.70687 -2.19456
      CHANNELS 3 Zrotation Xrotation Yrotation
      JOINT lShin
      {
        OFFSET 0 -36.8199 0.73152
        CHANNELS 3 Zrotation Xrotation Yrotation
        JOINT lFoot
        {
          OFFSET -0.73152 -45.1104 -5.12064
          CHANNELS 3 Zrotation Xrotation Yrotation
          End Site
          {
            OFFSET 1.1221 -3.69964 12.103
          }
        }
      }
    }
  }
}
MOTION
Frames:	4
Frame Time:	0.00833333
-47.188 85.0114 -191.941 0.0 0.0 0.0 0.0256063 -6.19164e-06 0.000728836 0.00706475 8.63156e-06 0.00122381 -4.869e-16 0.0 2.71776e-18 -1.46604e-15 3.18055e-15 7.76503e-18 -0.0 0.0 0.0 -0.0 0.0 0.0 -2.00118e-16 0.0 1.49089e-16 -3.21491e-15 2.60905e-16 9.93923e-16 -8.73162e-14 2.72335e-14 -6.36111e-15 -1.00807e-12 -2.55438e-14 3.18055e-15 -2.37896e-12 -3.24651e-15 1.59028e-14 -4.11643e-12 -9.54166e-15 1.90833e-14 -2.37468e-12 -2.38542e-15 6.36111e-15 7.73091 5.47488 0.417314 -2.37896e-12 -3.08116e-15 6.36111e-15 2.90554 0.965183 0.102902 -2.37312e-12 -3.18055e-15 1.11319e-14 10.2786 0.731801 0.0259123 -2.37925e-12 -2.78299e-15 1.59028e-14 2.22167 -0.733487 -0.20892 -2.9686e-16 -1.94126e-19 -1.49089e-16 -7.12315e-15 3.66509e-16 -9.93923e-16 -8.80616e-14 -2.32578e-14 -3.18055e-15 -1.01024e-12 3.51103e-14 9.54166e-15 -2.37904e-12 1.56382e-14 1.27222e-14 -4.09814e-12 2.22639e-14 2.70347e-14 -2.38343e-12 1.59028e-14 2.22639e-14 -7.73091 5.47488 -0.417314 -2.37866e-12 1.58034e-14 9.54166e-15 -2.90554 0.965183 -0.102902 -2.38383e-12 1.55052e-14 1.19271e-14 -10.2786 0.731801 -0.0259123 -2.37508e-12 1.59028e-14 6.36111e-15 -2.22167 -0.733487 0.20892 -2.03217e-16 0.0 -3.88251e-19 0.512304 -3.13364 -0.0420886 -0.00562805 0.123099 -0.0495527 -0.492804 3.00963 0.11736 2.03217e-16 0.0 3.88251e-19 -0.473321 -3.03453 0.0397103 0.00592195 -0.0564347 0.0521747 0.492501 3.09005 -0.118955
-48.4186 82.8326 -193.057 -1.7542 -11.2656 2.1799 1.1358 1.26628 0.220341 2.66631 -1.75544 0.253156 -3.86641 2.62851 -0.133227 2.1264 -1.2523 0.227857 -0.0 0.0 0.0 -0.0 0.0 0.0 -9.70115e-15 -4.84255e-15 -2.76233e-14 20.4704 3.73573 -1.42307 -3.93443 -1.73411 6.20252 0.00752582 1.9281 0.270426 2.17825e-10 -3.91322e-10 -2.84762e-10 3.75203e-10 -6.76702e-10 -4.94809e-10 2.17829e-10 -3.91321e-10 -2.84769e-10 7.73091 5.47488 0.417314 2.17825e-10 -3.91321e-10 -2.84765e-10 2.90554 0.965183 0.102902 2.17829e-10 -3.91321e-10 -2.84763e-10 10.2786 0.731801 0.0259123 2.17825e-10 -3.9132e-10 -2.84757e-10 2.22167 -0.733487 -0.20892 -9.72682e-15 -4.84179e-15 -2.78477e-14 -24.0009 5.48673 1.37897 4.89171 -2.37486 -7.46832 -0.00924845 2.13361 -0.299109 -1.04347e-10 8.86031e-12 -1.39855e-12 -1.81108e-10 1.55234e-11 -1.26726e-12 -1.04353e-10 8.86142e-12 -1.38603e-12 -7.73091 5.47488 -0.417314 -1.04347e-10 8.85959e-12 -1.40094e-12 -2.90554 0.965183 -0.102902 -1.04352e-10 8.86006e-12 -1.39909e-12 -10.2786 0.731801 -0.0259123 -1.04344e-10 8.86156e-12 -1.40578e-12 -2.22167 -0.733487 0.20892 -2.03217e-16 0.0 -3.88251e-19 2.97164 -7.18147 3.147 -0.00369239 7.88728 0.0235031 -0.550378 0.313637 -1.06704 2.03217e-16 0.0 3.88251e-19 1.1659 -10.2185 1.91098 0.00998513 17.9574 -0.186335 0.457466 3.66662 -1.00894
-48.3668 82.8573 -191.614 -1.7421 -10.378 1.8565 2.25904 2.59429 0.511783 5.57326 -3.64511 0.542333 -7.96459 5.41727 -0.261097 4.35567 -2.55451 0.493333 -0.0 0.0 0.0 -0.0 0.0 0.0 -2.09274e-14 -1.08592e-14 -5.90515e-14 42.2743 7.66325 -3.02161 -7.67301 -3.48912 12.7545 -0.0044002 3.97982 0.559236 4.77743e-10 -8.54107e-10 -5.96409e-10 8.23042e-10 -1.47703e-09 -1.03647e-09 4.77746e-10 -8.54106e-10 -5.96413e-10 7.73091 5.47488 0.417314 4.77742e-10 -8.54105e-10 -5.96404e-10 2.90554 0.965183 0.102902 4.77744e-10 -8.54106e-10 -5.96406e-10 10.2786 0.731801 0.0259123 4.77742e-10 -8.54104e-10 -5.96398e-10 2.22167 -0.733487 -0.20892 -2.08747e-14 -1.08574e-14 -5.91943e-14 -49.7203 11.2351 2.9102 9.4081 -4.76044 -15.4231 0.00526927 4.39178 -0.617089 -1.96085e-10 4.14411e-11 -2.64861e-12 -3.40491e-10 7.20181e-11 -2.33786e-12 -1.96092e-10 4.14432e-11 -2.6327e-12 -7.73091 5.47488 -0.417314 -1.96085e-10 4.14394e-11 -2.6502e-12 -2.90554 0.965183 -0.102902 -1.9609e-10 4.14407e-11 -2.64886e-12 -10.2786 0.731801 -0.0259123 -1.96083e-10 4.14434e-11 -2.65676e-12 -2.22167 -0.733487 0.20892 -2.03217e-16 0.0 -3.88251e-19 6.06092 -11.4791 6.66014 -0.025013 16.0863 0.100892 -0.721654 -2.47093 -2.24438 2.03217e-16 0.0 3.88251e-19 3.44383 -17.7099 4.12034 0.213626 37.0467 -0.526334 0.439791 4.3229 -2.00925
-48.4217 82.8779 -190.248 -1.7767 -10.0569 1.6778 3.32702 3.79864 0.660856 8.03129 -5.26592 0.759871 -11.5623 7.88535 -0.403071 6.40913 -3.75666 0.68488 -0.0 0.0 0.0 -0.0 0.0 0.0 -2.87032e-14 -1.45276e-14 -8.31681e-14 61.9764 11.1793 -4.3427 -10.6954 -4.95896 18.6715 -0.0322603 5.78378 0.814968 6.58234e-10 -1.17396e-09 -8.54319e-10 1.13384e-09 -2.03009e-09 -1.48446e-09 6.58237e-10 -1.17396e-09 -8.5432e-10 7.73091 5.47488 0.417314 6.58233e-10 -1.17396e-09 -8.54307e-10 2.90554 0.965183 0.102902 6.58234e-10 -1.17396e-09 -8.54312e-10 10.2786 0.731801 0.0259123 6.58233e-10 -1.17396e-09 -8.54302e-10 2.22167 -0.733487 -0.20892 -2.85867e-14 -1.4525e-14 -8.3245e-14 -72.8229 16.4212 4.2934 12.86 -6.64145 -22.5451 0.0394388 6.40013 -0.902328 -3.08284e-10 2.65496e-11 -4.22109e-12 -5.35129e-10 4.65257e-11 -3.85584e-12 -3.08292e-10 2.65525e-11 -4.20261e-12 -7.73091 5.47488 -0.417314 -3.08284e-10 2.65472e-11 -4.22189e-12 -2.90554 0.965183 -0.102902 -3.08289e-10 2.65492e-11 -4.22112e-12 -10.2786 0.731801 -0.0259123 -3.08283e-10 2.65529e-11 -4.23006e-12 -2.22167 -0.733487 0.20892 -2.03217e-16 0.0 -3.88251e-19 9.27799 -15.0965 9.79201 -0.0630973 23.4155 0.18411 -1.00048 -5.06905 -3.44896 2.03217e-16 0.0 3.88251e-19 5.97261 -24.4796 6.11408 0.720862 53.9806 -1.08178 0.44129 4.81575 -2.79293
